<svg width="1037" height="300" viewBox="0 0 1037 300" fill="none" xmlns="http://www.w3.org/2000/svg">
<path d="M1029.83 8.0629L1031.29 3.5H1026.5H31.5H11H5.63824L7.7959 8.40846L133.296 293.908L134.215 296H136.5H935.5H938.058L938.835 293.563L1029.83 8.0629Z" fill="#472A6E" stroke="white" stroke-width="7"/>
<path d="M114.196 78.2913C114.196 88.3973 111.312 92.045 102.598 92.045C93.8845 92.045 91 88.3973 91 78.2913V59.7537C91 49.7075 93.8845 46 102.598 46C111.312 46 114.196 49.7075 114.196 59.7537V78.2913ZM99.5333 80.3245C99.5333 82.7164 100.495 83.6732 102.598 83.6732C104.701 83.6732 105.663 82.7164 105.663 80.3245V58.0196C105.663 55.3884 104.701 54.3718 102.598 54.3718C100.495 54.3718 99.5333 55.3884 99.5333 58.0196V80.3245Z" fill="white"/>
<path d="M129.221 76.0788H128.44C127.599 76.0788 127.359 76.318 127.359 77.1552V89.2345C127.359 90.9687 126.878 91.4471 125.135 91.4471H121.289C119.546 91.4471 119.066 90.9687 119.066 89.2345V48.8105C119.066 47.0764 119.546 46.598 121.289 46.598H129.221C138.356 46.598 142.502 49.8869 142.502 57.9598V64.717C142.502 72.7898 138.356 76.0788 129.221 76.0788ZM127.359 56.0462V66.6306C127.359 67.4678 127.599 67.7069 128.44 67.7069H129.702C132.647 67.7069 133.969 66.511 133.969 63.4612V59.2155C133.969 56.1658 132.647 54.9698 129.702 54.9698H128.44C127.599 54.9698 127.359 55.209 127.359 56.0462Z" fill="white"/>
<path d="M177.909 98.2043C177.909 99.9385 177.428 100.417 175.805 100.417H141.552C139.929 100.417 139.449 99.9385 139.449 98.2043V94.2576C139.449 92.5234 139.929 92.045 141.672 92.045H175.685C177.428 92.045 177.909 92.5234 177.909 94.2576V98.2043Z" fill="white"/>
<path d="M201.458 77.0954V78.8893C201.458 88.5169 198.694 92.045 189.98 92.045C181.267 92.045 178.382 88.5169 178.382 78.8893V59.1557C178.382 49.5281 181.267 46 189.98 46C198.694 46 201.458 49.5281 201.458 59.1557V60.9497C201.458 62.6839 200.977 63.1622 199.235 63.1622H195.389C193.646 63.1622 193.165 62.6839 193.165 60.9497V57.7206C193.165 55.3286 192.144 54.3718 190.04 54.3718C187.937 54.3718 186.916 55.3286 186.916 57.7206V80.3245C186.916 82.7164 187.937 83.6732 190.04 83.6732C192.144 83.6732 193.165 82.7164 193.165 80.3245V77.0954C193.165 75.3612 193.646 74.8828 195.389 74.8828H199.235C200.977 74.8828 201.458 75.3612 201.458 77.0954Z" fill="white"/>
<path d="M212.129 89.2345C212.129 90.9687 211.648 91.4471 209.906 91.4471H206.06C204.317 91.4471 203.836 90.9687 203.836 89.2345V73.926C203.836 71.2949 203.956 70.2185 204.677 67.8265L210.146 49.5879C210.867 47.0764 211.468 46.598 214.593 46.598H216.756C219.881 46.598 220.482 47.0764 221.203 49.5879L226.672 67.8265C227.393 70.1587 227.513 71.2949 227.513 73.926V89.2345C227.513 90.9687 227.032 91.4471 225.29 91.4471H221.444C219.701 91.4471 219.22 90.9687 219.22 89.2345V81.3411C219.22 80.5039 218.98 80.2647 218.138 80.2647H213.211C212.369 80.2647 212.129 80.5039 212.129 81.3411V89.2345ZM218.319 71.8929C218.98 71.8929 219.34 71.6537 219.34 71.1155C219.34 70.8165 219.28 70.5175 219.22 70.2185L216.456 58.6773C216.336 58.0793 216.215 57.9598 215.675 57.9598C215.134 57.9598 215.014 58.0793 214.893 58.6773L212.129 70.2185C212.069 70.5175 212.009 70.8165 212.009 71.1155C212.009 71.6537 212.369 71.8929 213.03 71.8929H218.319Z" fill="white"/>
<path d="M247.063 54.9698H243.337C242.496 54.9698 242.255 55.209 242.255 56.0462V89.2345C242.255 90.9687 241.774 91.4471 240.032 91.4471H236.186C234.443 91.4471 233.962 90.9687 233.962 89.2345V56.0462C233.962 55.209 233.722 54.9698 232.881 54.9698H229.155C227.412 54.9698 226.931 54.4914 226.931 52.7573V48.8105C226.931 47.0764 227.412 46.598 229.155 46.598H247.063C248.805 46.598 249.286 47.0764 249.286 48.8105V52.7573C249.286 54.4914 248.805 54.9698 247.063 54.9698Z" fill="white"/>
<path d="M270.257 48.8105V89.2345C270.257 90.9687 269.776 91.4471 268.034 91.4471H264.188C262.445 91.4471 261.964 90.9687 261.964 89.2345V48.8105C261.964 47.0764 262.445 46.598 264.188 46.598H268.034C269.776 46.598 270.257 47.0764 270.257 48.8105Z" fill="white"/>
<path d="M284.718 62.5643L292.409 69.5009C296.436 73.0888 297.337 75.2416 297.337 79.2481V80.3245C297.337 87.8591 294.453 92.045 285.739 92.045C277.026 92.045 274.141 88.5169 274.141 78.8893V77.6933C274.141 75.9592 274.622 75.4808 276.364 75.4808H280.451C282.194 75.4808 282.674 75.9592 282.674 77.6933V80.3245C282.674 82.7164 283.636 83.6732 285.739 83.6732C287.842 83.6732 288.804 82.7762 288.804 80.6235V79.4873C288.804 77.8129 288.443 76.9758 286.22 75.0024L279.009 68.6039C274.982 65.0758 274.141 63.0426 274.141 59.0361V57.7206C274.141 50.1859 277.026 46 285.739 46C294.453 46 297.337 49.5281 297.337 59.1557V60.3517C297.337 62.0859 296.856 62.5643 295.114 62.5643H291.027C289.285 62.5643 288.804 62.0859 288.804 60.3517V57.7206C288.804 55.3286 287.842 54.3718 285.739 54.3718C283.636 54.3718 282.674 55.2688 282.674 57.4216V58.4381C282.674 60.1723 283.035 61.0095 284.718 62.5643Z" fill="white"/>
<path d="M318.233 46.598H325.805C328.509 46.598 329.351 47.495 329.651 49.7075L334.939 89.2345C335.18 90.9687 334.699 91.4471 332.956 91.4471H328.81C327.007 91.4471 326.586 91.0285 326.346 89.2345L325.565 82.7164C325.505 82.1184 325.324 81.9391 324.603 81.9391H319.435C318.714 81.9391 318.534 82.1184 318.474 82.7164L317.692 89.2345C317.452 91.0285 317.031 91.4471 315.229 91.4471H311.082C309.339 91.4471 308.859 90.9687 309.099 89.2345L314.387 49.7075C314.688 47.495 315.529 46.598 318.233 46.598ZM323.101 58.7969C323.041 58.0793 322.68 57.9598 322.019 57.9598C321.358 57.9598 320.998 58.0793 320.938 58.7969L319.555 72.73C319.495 73.4476 319.676 73.627 320.457 73.627H323.582C324.363 73.627 324.543 73.4476 324.483 72.73L323.101 58.7969Z" fill="white"/>
<path d="M354.251 68.3049V48.8105C354.251 47.0764 354.732 46.598 356.474 46.598H359.84C361.582 46.598 362.063 47.0764 362.063 48.8105V89.2345C362.063 90.9687 361.582 91.4471 359.84 91.4471H357.075C355.213 91.4471 354.672 91.0285 354.071 89.4139L346.559 69.6205C346.379 69.2019 346.198 69.0823 345.958 69.0823C345.658 69.0823 345.537 69.2019 345.537 69.7401V89.2345C345.537 90.9687 345.057 91.4471 343.314 91.4471H340.009C338.266 91.4471 337.785 90.9687 337.785 89.2345V48.8105C337.785 47.0764 338.266 46.598 340.009 46.598H342.713C344.456 46.598 345.057 46.7774 345.598 48.1528L353.229 68.4245C353.41 68.8431 353.59 68.9627 353.83 68.9627C354.131 68.9627 354.251 68.8431 354.251 68.3049Z" fill="white"/>
<path d="M399.758 78.2913C399.758 88.3973 396.874 92.045 388.16 92.045C379.447 92.045 376.562 88.3973 376.562 78.2913V59.7537C376.562 49.7075 379.447 46 388.16 46C396.874 46 399.758 49.7075 399.758 59.7537V78.2913ZM385.095 80.3245C385.095 82.7164 386.057 83.6732 388.16 83.6732C390.264 83.6732 391.225 82.7164 391.225 80.3245V58.0196C391.225 55.3884 390.264 54.3718 388.16 54.3718C386.057 54.3718 385.095 55.3884 385.095 58.0196V80.3245Z" fill="white"/>
<path d="M414.784 76.0788H414.002C413.161 76.0788 412.921 76.318 412.921 77.1552V89.2345C412.921 90.9687 412.44 91.4471 410.697 91.4471H406.851C405.109 91.4471 404.628 90.9687 404.628 89.2345V48.8105C404.628 47.0764 405.109 46.598 406.851 46.598H414.784C423.918 46.598 428.064 49.8869 428.064 57.9598V64.717C428.064 72.7898 423.918 76.0788 414.784 76.0788ZM412.921 56.0462V66.6306C412.921 67.4678 413.161 67.7069 414.002 67.7069H415.264C418.209 67.7069 419.531 66.511 419.531 63.4612V59.2155C419.531 56.1658 418.209 54.9698 415.264 54.9698H414.002C413.161 54.9698 412.921 55.209 412.921 56.0462Z" fill="white"/>
<path d="M453.394 77.0954V78.8893C453.394 88.5169 450.63 92.045 441.916 92.045C433.202 92.045 430.318 88.5169 430.318 78.8893V59.1557C430.318 49.5281 433.202 46 441.916 46C450.63 46 453.394 49.5281 453.394 59.1557V60.9497C453.394 62.6839 452.913 63.1622 451.17 63.1622H447.324C445.582 63.1622 445.101 62.6839 445.101 60.9497V57.7206C445.101 55.3286 444.079 54.3718 441.976 54.3718C439.873 54.3718 438.851 55.3286 438.851 57.7206V80.3245C438.851 82.7164 439.873 83.6732 441.976 83.6732C444.079 83.6732 445.101 82.7164 445.101 80.3245V77.0954C445.101 75.3612 445.582 74.8828 447.324 74.8828H451.17C452.913 74.8828 453.394 75.3612 453.394 77.0954Z" fill="white"/>
<path d="M479.922 78.2913C479.922 88.3973 477.038 92.045 468.324 92.045C459.611 92.045 456.726 88.3973 456.726 78.2913V59.7537C456.726 49.7075 459.611 46 468.324 46C477.038 46 479.922 49.7075 479.922 59.7537V78.2913ZM465.259 80.3245C465.259 82.7164 466.221 83.6732 468.324 83.6732C470.428 83.6732 471.389 82.7164 471.389 80.3245V58.0196C471.389 55.3884 470.428 54.3718 468.324 54.3718C466.221 54.3718 465.259 55.3884 465.259 58.0196V80.3245Z" fill="white"/>
<path d="M494.347 46.598C505.885 46.598 508.228 50.7839 508.228 60.9497V77.0954C508.228 87.2611 505.885 91.4471 494.347 91.4471H487.015C485.273 91.4471 484.792 90.9687 484.792 89.2345V48.8105C484.792 47.0764 485.273 46.598 487.015 46.598H494.347ZM494.166 54.9698C493.325 54.9698 493.085 55.209 493.085 56.0462V81.9988C493.085 82.7762 493.325 83.0752 494.166 83.0752H494.827C498.193 83.0752 499.695 81.5205 499.695 77.6335V60.4115C499.695 56.5246 498.193 54.9698 494.827 54.9698H494.166Z" fill="white"/>
<path d="M520.96 56.0462V62.7437C520.96 63.521 521.201 63.82 522.042 63.82H529.493C531.236 63.82 531.717 64.2984 531.717 66.0326V69.9793C531.717 71.7135 531.236 72.1919 529.614 72.1919H522.042C521.201 72.1919 520.96 72.431 520.96 73.2682V81.9988C520.96 82.7762 521.201 83.0752 522.042 83.0752H530.215C531.957 83.0752 532.438 83.5536 532.438 85.2878V89.2345C532.438 90.9687 531.957 91.4471 530.215 91.4471H514.891C513.148 91.4471 512.667 90.9687 512.667 89.2345V48.8105C512.667 47.0764 513.148 46.598 514.891 46.598H530.215C531.957 46.598 532.438 47.0764 532.438 48.8105V52.7573C532.438 54.4914 531.957 54.9698 530.215 54.9698H522.042C521.201 54.9698 520.96 55.209 520.96 56.0462Z" fill="white"/>
<path d="M538.122 91.8058C538.242 91.5069 538.182 91.3873 537.881 91.3275C535.778 91.0883 535.177 89.8923 535.177 87.7993V86.2446C535.177 83.8526 536.439 82.5968 538.843 82.5968H540.405C542.869 82.5968 544.071 83.8526 544.071 86.2446V88.0983C544.071 89.5335 543.891 90.4305 543.169 91.746L540.946 95.8722C540.525 96.6495 540.345 96.7691 539.504 96.7691H537.521C536.92 96.7691 536.679 96.5897 536.679 96.1712C536.679 95.9918 536.739 95.8124 536.86 95.4536L538.122 91.8058Z" fill="white"/>
<path d="M574.614 46.598H577.018C578.76 46.598 579.361 47.1362 579.542 48.8105L583.027 80.0255C583.087 80.5637 583.207 80.6833 583.628 80.6833C584.109 80.6833 584.289 80.5637 584.349 80.0255L586.272 48.8105C586.392 47.0764 586.753 46.598 588.496 46.598H592.943C594.685 46.598 595.346 47.0764 595.166 48.8105L591.741 87.6199C591.5 90.4903 590.479 91.4471 587.354 91.4471H582.246C579.121 91.4471 578.22 90.4903 577.859 87.6199L576.297 75.2416C576.236 74.7632 576.116 74.6436 575.816 74.6436C575.515 74.6436 575.395 74.7632 575.335 75.2416L573.833 87.6199C573.472 90.4903 572.571 91.4471 569.446 91.4471H564.278C561.153 91.4471 560.131 90.4903 559.891 87.6199L556.466 48.8105C556.285 47.0764 556.946 46.598 558.689 46.598H563.136C564.879 46.598 565.239 47.0764 565.36 48.8105L567.222 80.0255C567.283 80.5637 567.463 80.6833 567.944 80.6833C568.364 80.6833 568.484 80.5637 568.544 80.0255L572.09 48.8105C572.27 47.1362 572.871 46.598 574.614 46.598Z" fill="white"/>
<path d="M614.025 89.2345V73.0888C614.025 72.2517 613.785 72.0125 612.943 72.0125H608.016C607.174 72.0125 606.934 72.2517 606.934 73.0888V89.2345C606.934 90.9687 606.453 91.4471 604.711 91.4471H600.865C599.122 91.4471 598.641 90.9687 598.641 89.2345V48.8105C598.641 47.0764 599.122 46.598 600.865 46.598H604.711C606.453 46.598 606.934 47.0764 606.934 48.8105V62.5643C606.934 63.3416 607.174 63.6406 608.016 63.6406H612.943C613.785 63.6406 614.025 63.3416 614.025 62.5643V48.8105C614.025 47.0764 614.506 46.598 616.249 46.598H620.095C621.837 46.598 622.318 47.0764 622.318 48.8105V89.2345C622.318 90.9687 621.837 91.4471 620.095 91.4471H616.249C614.506 91.4471 614.025 90.9687 614.025 89.2345Z" fill="white"/>
<path d="M636.101 48.8105V89.2345C636.101 90.9687 635.62 91.4471 633.877 91.4471H630.031C628.288 91.4471 627.808 90.9687 627.808 89.2345V48.8105C627.808 47.0764 628.288 46.598 630.031 46.598H633.877C635.62 46.598 636.101 47.0764 636.101 48.8105Z" fill="white"/>
<path d="M664.015 77.0954V78.8893C664.015 88.5169 661.251 92.045 652.537 92.045C643.824 92.045 640.939 88.5169 640.939 78.8893V59.1557C640.939 49.5281 643.824 46 652.537 46C661.251 46 664.015 49.5281 664.015 59.1557V60.9497C664.015 62.6839 663.534 63.1622 661.792 63.1622H657.946C656.203 63.1622 655.722 62.6839 655.722 60.9497V57.7206C655.722 55.3286 654.7 54.3718 652.597 54.3718C650.494 54.3718 649.472 55.3286 649.472 57.7206V80.3245C649.472 82.7164 650.494 83.6732 652.597 83.6732C654.7 83.6732 655.722 82.7164 655.722 80.3245V77.0954C655.722 75.3612 656.203 74.8828 657.946 74.8828H661.792C663.534 74.8828 664.015 75.3612 664.015 77.0954Z" fill="white"/>
<path d="M683.332 89.2345V73.0888C683.332 72.2517 683.092 72.0125 682.251 72.0125H677.323C676.482 72.0125 676.241 72.2517 676.241 73.0888V89.2345C676.241 90.9687 675.76 91.4471 674.018 91.4471H670.172C668.429 91.4471 667.948 90.9687 667.948 89.2345V48.8105C667.948 47.0764 668.429 46.598 670.172 46.598H674.018C675.76 46.598 676.241 47.0764 676.241 48.8105V62.5643C676.241 63.3416 676.482 63.6406 677.323 63.6406H682.251C683.092 63.6406 683.332 63.3416 683.332 62.5643V48.8105C683.332 47.0764 683.813 46.598 685.556 46.598H689.402C691.144 46.598 691.625 47.0764 691.625 48.8105V89.2345C691.625 90.9687 691.144 91.4471 689.402 91.4471H685.556C683.813 91.4471 683.332 90.9687 683.332 89.2345Z" fill="white"/>
<path d="M716.054 62.5643L723.746 69.5009C727.772 73.0888 728.673 75.2416 728.673 79.2481V80.3245C728.673 87.8591 725.789 92.045 717.075 92.045C708.362 92.045 705.477 88.5169 705.477 78.8893V77.6933C705.477 75.9592 705.958 75.4808 707.701 75.4808H711.787C713.53 75.4808 714.011 75.9592 714.011 77.6933V80.3245C714.011 82.7164 714.972 83.6732 717.075 83.6732C719.179 83.6732 720.14 82.7762 720.14 80.6235V79.4873C720.14 77.8129 719.78 76.9758 717.556 75.0024L710.345 68.6039C706.319 65.0758 705.477 63.0426 705.477 59.0361V57.7206C705.477 50.1859 708.362 46 717.075 46C725.789 46 728.673 49.5281 728.673 59.1557V60.3517C728.673 62.0859 728.193 62.5643 726.45 62.5643H722.364C720.621 62.5643 720.14 62.0859 720.14 60.3517V57.7206C720.14 55.3286 719.179 54.3718 717.075 54.3718C714.972 54.3718 714.011 55.2688 714.011 57.4216V58.4381C714.011 60.1723 714.371 61.0095 716.054 62.5643Z" fill="white"/>
<path d="M749.995 54.9698H746.269C745.428 54.9698 745.187 55.209 745.187 56.0462V89.2345C745.187 90.9687 744.707 91.4471 742.964 91.4471H739.118C737.375 91.4471 736.895 90.9687 736.895 89.2345V56.0462C736.895 55.209 736.654 54.9698 735.813 54.9698H732.087C730.344 54.9698 729.864 54.4914 729.864 52.7573V48.8105C729.864 47.0764 730.344 46.598 732.087 46.598H749.995C751.738 46.598 752.218 47.0764 752.218 48.8105V52.7573C752.218 54.4914 751.738 54.9698 749.995 54.9698Z" fill="white"/>
<path d="M759.546 46.598H767.118C769.822 46.598 770.663 47.495 770.964 49.7075L776.252 89.2345C776.492 90.9687 776.012 91.4471 774.269 91.4471H770.123C768.32 91.4471 767.899 91.0285 767.659 89.2345L766.877 82.7164C766.817 82.1184 766.637 81.9391 765.916 81.9391H760.748C760.027 81.9391 759.847 82.1184 759.786 82.7164L759.005 89.2345C758.765 91.0285 758.344 91.4471 756.541 91.4471H752.395C750.652 91.4471 750.171 90.9687 750.412 89.2345L755.7 49.7075C756.001 47.495 756.842 46.598 759.546 46.598ZM764.414 58.7969C764.354 58.0793 763.993 57.9598 763.332 57.9598C762.671 57.9598 762.31 58.0793 762.25 58.7969L760.868 72.73C760.808 73.4476 760.988 73.627 761.769 73.627H764.894C765.676 73.627 765.856 73.4476 765.796 72.73L764.414 58.7969Z" fill="white"/>
<path d="M795.564 68.3049V48.8105C795.564 47.0764 796.045 46.598 797.787 46.598H801.152C802.895 46.598 803.376 47.0764 803.376 48.8105V89.2345C803.376 90.9687 802.895 91.4471 801.152 91.4471H798.388C796.525 91.4471 795.984 91.0285 795.383 89.4139L787.872 69.6205C787.691 69.2019 787.511 69.0823 787.271 69.0823C786.97 69.0823 786.85 69.2019 786.85 69.7401V89.2345C786.85 90.9687 786.369 91.4471 784.627 91.4471H781.322C779.579 91.4471 779.098 90.9687 779.098 89.2345V48.8105C779.098 47.0764 779.579 46.598 781.322 46.598H784.026C785.768 46.598 786.369 46.7774 786.91 48.1528L794.542 68.4245C794.722 68.8431 794.903 68.9627 795.143 68.9627C795.444 68.9627 795.564 68.8431 795.564 68.3049Z" fill="white"/>
<path d="M818.406 46.598C829.944 46.598 832.288 50.7839 832.288 60.9497V77.0954C832.288 87.2611 829.944 91.4471 818.406 91.4471H811.075C809.332 91.4471 808.851 90.9687 808.851 89.2345V48.8105C808.851 47.0764 809.332 46.598 811.075 46.598H818.406ZM818.226 54.9698C817.385 54.9698 817.144 55.209 817.144 56.0462V81.9988C817.144 82.7762 817.385 83.0752 818.226 83.0752H818.887C822.252 83.0752 823.755 81.5205 823.755 77.6335V60.4115C823.755 56.5246 822.252 54.9698 818.887 54.9698H818.226Z" fill="white"/>
<path d="M846.041 62.5643L853.733 69.5009C857.76 73.0888 858.661 75.2416 858.661 79.2481V80.3245C858.661 87.8591 855.777 92.045 847.063 92.045C838.35 92.045 835.465 88.5169 835.465 78.8893V77.6933C835.465 75.9592 835.946 75.4808 837.688 75.4808H841.775C843.518 75.4808 843.998 75.9592 843.998 77.6933V80.3245C843.998 82.7164 844.96 83.6732 847.063 83.6732C849.166 83.6732 850.128 82.7762 850.128 80.6235V79.4873C850.128 77.8129 849.767 76.9758 847.544 75.0024L840.333 68.6039C836.306 65.0758 835.465 63.0426 835.465 59.0361V57.7206C835.465 50.1859 838.35 46 847.063 46C855.777 46 858.661 49.5281 858.661 59.1557V60.3517C858.661 62.0859 858.18 62.5643 856.438 62.5643H852.351C850.609 62.5643 850.128 62.0859 850.128 60.3517V57.7206C850.128 55.3286 849.166 54.3718 847.063 54.3718C844.96 54.3718 843.998 55.2688 843.998 57.4216V58.4381C843.998 60.1723 844.359 61.0095 846.041 62.5643Z" fill="white"/>
<path d="M880.759 74.3446V89.2345C880.759 90.9687 880.278 91.4471 878.536 91.4471H874.69C872.947 91.4471 872.466 90.9687 872.466 89.2345V48.8105C872.466 47.0764 872.947 46.598 874.69 46.598H890.855C892.598 46.598 893.078 47.0764 893.078 48.8105V52.7573C893.078 54.4914 892.598 54.9698 890.855 54.9698H881.841C881 54.9698 880.759 55.209 880.759 56.0462V63.82C880.759 64.5974 881 64.8964 881.841 64.8964H888.331C890.074 64.8964 890.554 65.3748 890.554 67.109V71.0557C890.554 72.7898 890.074 73.2682 888.451 73.2682H881.841C881 73.2682 880.759 73.5074 880.759 74.3446Z" fill="white"/>
<path d="M917.538 78.2913C917.538 88.3973 914.653 92.045 905.94 92.045C897.226 92.045 894.342 88.3973 894.342 78.2913V59.7537C894.342 49.7075 897.226 46 905.94 46C914.653 46 917.538 49.7075 917.538 59.7537V78.2913ZM902.875 80.3245C902.875 82.7164 903.836 83.6732 905.94 83.6732C908.043 83.6732 909.005 82.7164 909.005 80.3245V58.0196C909.005 55.3884 908.043 54.3718 905.94 54.3718C903.836 54.3718 902.875 55.3884 902.875 58.0196V80.3245Z" fill="white"/>
<path d="M938.272 89.7727L933.465 75.2416C933.164 74.4044 932.924 74.1652 932.022 74.1652H931.782C930.941 74.1652 930.7 74.4044 930.7 75.2416V89.2345C930.7 90.9687 930.22 91.4471 928.477 91.4471H924.631C922.888 91.4471 922.407 90.9687 922.407 89.2345V48.8105C922.407 47.0764 922.888 46.598 924.631 46.598H932.563C941.697 46.598 945.844 49.7075 945.844 57.3618V61.6673C945.844 67.2884 944.942 69.4411 941.757 72.1321C941.397 72.3713 941.337 72.4908 941.337 72.7898C941.337 72.9692 941.397 73.1486 941.517 73.5672L946.805 89.1747C947.346 90.7295 946.745 91.4471 945.183 91.4471H940.796C939.113 91.4471 938.753 91.2079 938.272 89.7727ZM930.7 55.7472V64.9562C930.7 65.7934 930.941 66.0326 931.782 66.0326H933.044C935.868 66.0326 937.311 64.7768 937.311 61.9065V58.6175C937.311 55.807 935.989 54.6708 933.044 54.6708H931.782C930.941 54.6708 930.7 54.91 930.7 55.7472Z" fill="white"/>
<path d="M135.323 159.269C135.323 169.375 132.438 173.023 123.725 173.023C115.011 173.023 112.127 169.375 112.127 159.269V140.731C112.127 130.685 115.011 126.977 123.725 126.977C132.438 126.977 135.323 130.685 135.323 140.731V159.269ZM120.66 161.302C120.66 163.694 121.621 164.651 123.725 164.651C125.828 164.651 126.79 163.694 126.79 161.302V138.997C126.79 136.366 125.828 135.349 123.725 135.349C121.621 135.349 120.66 136.366 120.66 138.997V161.302Z" fill="white"/>
<path d="M150.348 157.056H149.567C148.726 157.056 148.485 157.295 148.485 158.133V170.212C148.485 171.946 148.004 172.425 146.262 172.425H142.416C140.673 172.425 140.192 171.946 140.192 170.212V129.788C140.192 128.054 140.673 127.575 142.416 127.575H150.348C159.482 127.575 163.629 130.864 163.629 138.937V145.694C163.629 153.767 159.482 157.056 150.348 157.056ZM148.485 137.024V147.608C148.485 148.445 148.726 148.684 149.567 148.684H150.829C153.773 148.684 155.096 147.488 155.096 144.439V140.193C155.096 137.143 153.773 135.947 150.829 135.947H149.567C148.726 135.947 148.485 136.186 148.485 137.024Z" fill="white"/>
<path d="M174.776 137.024V143.721C174.776 144.499 175.017 144.798 175.858 144.798H183.309C185.052 144.798 185.533 145.276 185.533 147.01V150.957C185.533 152.691 185.052 153.169 183.43 153.169H175.858C175.017 153.169 174.776 153.409 174.776 154.246V162.976C174.776 163.754 175.017 164.053 175.858 164.053H184.031C185.773 164.053 186.254 164.531 186.254 166.265V170.212C186.254 171.946 185.773 172.425 184.031 172.425H168.707C166.964 172.425 166.483 171.946 166.483 170.212V129.788C166.483 128.054 166.964 127.575 168.707 127.575H184.031C185.773 127.575 186.254 128.054 186.254 129.788V133.735C186.254 135.469 185.773 135.947 184.031 135.947H175.858C175.017 135.947 174.776 136.186 174.776 137.024Z" fill="white"/>
<path d="M205.939 170.75L201.132 156.219C200.831 155.382 200.591 155.143 199.69 155.143H199.449C198.608 155.143 198.368 155.382 198.368 156.219V170.212C198.368 171.946 197.887 172.425 196.144 172.425H192.298C190.555 172.425 190.075 171.946 190.075 170.212V129.788C190.075 128.054 190.555 127.575 192.298 127.575H200.231C209.365 127.575 213.511 130.685 213.511 138.339V142.645C213.511 148.266 212.61 150.419 209.425 153.11C209.064 153.349 209.004 153.468 209.004 153.767C209.004 153.947 209.064 154.126 209.184 154.545L214.473 170.152C215.014 171.707 214.413 172.425 212.85 172.425H208.463C206.781 172.425 206.42 172.185 205.939 170.75ZM198.368 136.725V145.934C198.368 146.771 198.608 147.01 199.449 147.01H200.711C203.536 147.01 204.978 145.754 204.978 142.884V139.595C204.978 136.784 203.656 135.648 200.711 135.648H199.449C198.608 135.648 198.368 135.887 198.368 136.725Z" fill="white"/>
<path d="M225.511 127.575H233.083C235.787 127.575 236.628 128.472 236.929 130.685L242.217 170.212C242.457 171.946 241.976 172.425 240.234 172.425H236.087C234.284 172.425 233.864 172.006 233.623 170.212L232.842 163.694C232.782 163.096 232.602 162.917 231.881 162.917H226.713C225.991 162.917 225.811 163.096 225.751 163.694L224.97 170.212C224.729 172.006 224.309 172.425 222.506 172.425H218.36C216.617 172.425 216.136 171.946 216.376 170.212L221.665 130.685C221.965 128.472 222.806 127.575 225.511 127.575ZM230.378 139.774C230.318 139.057 229.958 138.937 229.297 138.937C228.636 138.937 228.275 139.057 228.215 139.774L226.833 153.708C226.773 154.425 226.953 154.604 227.734 154.604H230.859C231.64 154.604 231.821 154.425 231.76 153.708L230.378 139.774Z" fill="white"/>
<path d="M260.678 135.947H256.952C256.111 135.947 255.87 136.186 255.87 137.024V170.212C255.87 171.946 255.389 172.425 253.647 172.425H249.801C248.058 172.425 247.577 171.946 247.577 170.212V137.024C247.577 136.186 247.337 135.947 246.496 135.947H242.77C241.027 135.947 240.546 135.469 240.546 133.735V129.788C240.546 128.054 241.027 127.575 242.77 127.575H260.678C262.42 127.575 262.901 128.054 262.901 129.788V133.735C262.901 135.469 262.42 135.947 260.678 135.947Z" fill="white"/>
<path d="M272.957 129.788V170.212C272.957 171.946 272.476 172.425 270.733 172.425H266.887C265.144 172.425 264.664 171.946 264.664 170.212V129.788C264.664 128.054 265.144 127.575 266.887 127.575H270.733C272.476 127.575 272.957 128.054 272.957 129.788Z" fill="white"/>
<path d="M300.991 159.269C300.991 169.375 298.107 173.023 289.393 173.023C280.68 173.023 277.795 169.375 277.795 159.269V140.731C277.795 130.685 280.68 126.977 289.393 126.977C298.107 126.977 300.991 130.685 300.991 140.731V159.269ZM286.328 161.302C286.328 163.694 287.29 164.651 289.393 164.651C291.496 164.651 292.458 163.694 292.458 161.302V138.997C292.458 136.366 291.496 135.349 289.393 135.349C287.29 135.349 286.328 136.366 286.328 138.997V161.302Z" fill="white"/>
<path d="M322.326 149.282V129.788C322.326 128.054 322.807 127.575 324.55 127.575H327.915C329.658 127.575 330.138 128.054 330.138 129.788V170.212C330.138 171.946 329.658 172.425 327.915 172.425H325.151C323.288 172.425 322.747 172.006 322.146 170.391L314.634 150.598C314.454 150.179 314.274 150.06 314.033 150.06C313.733 150.06 313.613 150.179 313.613 150.718V170.212C313.613 171.946 313.132 172.425 311.389 172.425H308.084C306.341 172.425 305.861 171.946 305.861 170.212V129.788C305.861 128.054 306.341 127.575 308.084 127.575H310.788C312.531 127.575 313.132 127.755 313.673 129.13L321.305 149.402C321.485 149.821 321.665 149.94 321.906 149.94C322.206 149.94 322.326 149.821 322.326 149.282Z" fill="white"/>
<path d="M367.713 158.073V159.867C367.713 169.494 364.949 173.023 356.236 173.023C347.522 173.023 344.637 169.494 344.637 159.867V140.133C344.637 130.506 347.522 126.977 356.236 126.977C364.949 126.977 367.713 130.506 367.713 140.133V141.927C367.713 143.661 367.233 144.14 365.49 144.14H361.644C359.901 144.14 359.42 143.661 359.42 141.927V138.698C359.42 136.306 358.399 135.349 356.296 135.349C354.192 135.349 353.171 136.306 353.171 138.698V161.302C353.171 163.694 354.192 164.651 356.296 164.651C358.399 164.651 359.42 163.694 359.42 161.302V158.073C359.42 156.339 359.901 155.86 361.644 155.86H365.49C367.233 155.86 367.713 156.339 367.713 158.073Z" fill="white"/>
<path d="M394.242 159.269C394.242 169.375 391.357 173.023 382.644 173.023C373.93 173.023 371.046 169.375 371.046 159.269V140.731C371.046 130.685 373.93 126.977 382.644 126.977C391.357 126.977 394.242 130.685 394.242 140.731V159.269ZM379.579 161.302C379.579 163.694 380.541 164.651 382.644 164.651C384.747 164.651 385.709 163.694 385.709 161.302V138.997C385.709 136.366 384.747 135.349 382.644 135.349C380.541 135.349 379.579 136.366 379.579 138.997V161.302Z" fill="white"/>
<path d="M408.666 127.575C420.204 127.575 422.548 131.761 422.548 141.927V158.073C422.548 168.239 420.204 172.425 408.666 172.425H401.335C399.592 172.425 399.111 171.946 399.111 170.212V129.788C399.111 128.054 399.592 127.575 401.335 127.575H408.666ZM408.486 135.947C407.645 135.947 407.404 136.186 407.404 137.024V162.976C407.404 163.754 407.645 164.053 408.486 164.053H409.147C412.512 164.053 414.015 162.498 414.015 158.611V141.389C414.015 137.502 412.512 135.947 409.147 135.947H408.486Z" fill="white"/>
<path d="M435.28 137.024V143.721C435.28 144.499 435.52 144.798 436.361 144.798H443.813C445.556 144.798 446.037 145.276 446.037 147.01V150.957C446.037 152.691 445.556 153.169 443.933 153.169H436.361C435.52 153.169 435.28 153.409 435.28 154.246V162.976C435.28 163.754 435.52 164.053 436.361 164.053H444.534C446.277 164.053 446.758 164.531 446.758 166.265V170.212C446.758 171.946 446.277 172.425 444.534 172.425H429.21C427.468 172.425 426.987 171.946 426.987 170.212V129.788C426.987 128.054 427.468 127.575 429.21 127.575H444.534C446.277 127.575 446.758 128.054 446.758 129.788V133.735C446.758 135.469 446.277 135.947 444.534 135.947H436.361C435.52 135.947 435.28 136.186 435.28 137.024Z" fill="white"/>
<path d="M452.441 172.783C452.561 172.484 452.501 172.365 452.201 172.305C450.098 172.066 449.497 170.87 449.497 168.777V167.222C449.497 164.83 450.759 163.574 453.162 163.574H454.725C457.189 163.574 458.39 164.83 458.39 167.222V169.076C458.39 170.511 458.21 171.408 457.489 172.724L455.266 176.85C454.845 177.627 454.665 177.747 453.823 177.747H451.84C451.239 177.747 450.999 177.567 450.999 177.149C450.999 176.969 451.059 176.79 451.179 176.431L452.441 172.783Z" fill="white"/>
<path d="M490.196 135.947H486.47C485.628 135.947 485.388 136.186 485.388 137.024V170.212C485.388 171.946 484.907 172.425 483.165 172.425H479.319C477.576 172.425 477.095 171.946 477.095 170.212V137.024C477.095 136.186 476.855 135.947 476.013 135.947H472.288C470.545 135.947 470.064 135.469 470.064 133.735V129.788C470.064 128.054 470.545 127.575 472.288 127.575H490.196C491.938 127.575 492.419 128.054 492.419 129.788V133.735C492.419 135.469 491.938 135.947 490.196 135.947Z" fill="white"/>
<path d="M509.565 170.212V154.066C509.565 153.229 509.325 152.99 508.484 152.99H503.556C502.715 152.99 502.474 153.229 502.474 154.066V170.212C502.474 171.946 501.994 172.425 500.251 172.425H496.405C494.662 172.425 494.181 171.946 494.181 170.212V129.788C494.181 128.054 494.662 127.575 496.405 127.575H500.251C501.994 127.575 502.474 128.054 502.474 129.788V143.542C502.474 144.319 502.715 144.618 503.556 144.618H508.484C509.325 144.618 509.565 144.319 509.565 143.542V129.788C509.565 128.054 510.046 127.575 511.789 127.575H515.635C517.378 127.575 517.858 128.054 517.858 129.788V170.212C517.858 171.946 517.378 172.425 515.635 172.425H511.789C510.046 172.425 509.565 171.946 509.565 170.212Z" fill="white"/>
<path d="M529.852 127.575H537.424C540.128 127.575 540.97 128.472 541.27 130.685L546.558 170.212C546.799 171.946 546.318 172.425 544.575 172.425H540.429C538.626 172.425 538.205 172.006 537.965 170.212L537.184 163.694C537.123 163.096 536.943 162.917 536.222 162.917H531.054C530.333 162.917 530.153 163.096 530.093 163.694L529.311 170.212C529.071 172.006 528.65 172.425 526.847 172.425H522.701C520.958 172.425 520.478 171.946 520.718 170.212L526.006 130.685C526.307 128.472 527.148 127.575 529.852 127.575ZM534.72 139.774C534.66 139.057 534.299 138.937 533.638 138.937C532.977 138.937 532.616 139.057 532.556 139.774L531.174 153.708C531.114 154.425 531.294 154.604 532.076 154.604H535.2C535.982 154.604 536.162 154.425 536.102 153.708L534.72 139.774Z" fill="white"/>
<path d="M565.019 135.947H561.293C560.452 135.947 560.212 136.186 560.212 137.024V170.212C560.212 171.946 559.731 172.425 557.988 172.425H554.142C552.399 172.425 551.919 171.946 551.919 170.212V137.024C551.919 136.186 551.678 135.947 550.837 135.947H547.111C545.369 135.947 544.888 135.469 544.888 133.735V129.788C544.888 128.054 545.369 127.575 547.111 127.575H565.019C566.762 127.575 567.243 128.054 567.243 129.788V133.735C567.243 135.469 566.762 135.947 565.019 135.947Z" fill="white"/>
<path d="M596.269 127.575H598.673C600.415 127.575 601.016 128.114 601.196 129.788L604.682 161.003C604.742 161.541 604.862 161.661 605.283 161.661C605.764 161.661 605.944 161.541 606.004 161.003L607.927 129.788C608.047 128.054 608.408 127.575 610.15 127.575H614.597C616.34 127.575 617.001 128.054 616.821 129.788L613.395 168.597C613.155 171.468 612.134 172.425 609.009 172.425H603.901C600.776 172.425 599.874 171.468 599.514 168.597L597.951 156.219C597.891 155.741 597.771 155.621 597.471 155.621C597.17 155.621 597.05 155.741 596.99 156.219L595.488 168.597C595.127 171.468 594.226 172.425 591.101 172.425H585.933C582.808 172.425 581.786 171.468 581.546 168.597L578.12 129.788C577.94 128.054 578.601 127.575 580.344 127.575H584.791C586.534 127.575 586.894 128.054 587.014 129.788L588.877 161.003C588.937 161.541 589.118 161.661 589.598 161.661C590.019 161.661 590.139 161.541 590.199 161.003L593.745 129.788C593.925 128.114 594.526 127.575 596.269 127.575Z" fill="white"/>
<path d="M626.8 127.575H634.372C637.076 127.575 637.917 128.472 638.218 130.685L643.506 170.212C643.747 171.946 643.266 172.425 641.523 172.425H637.377C635.574 172.425 635.153 172.006 634.913 170.212L634.132 163.694C634.071 163.096 633.891 162.917 633.17 162.917H628.002C627.281 162.917 627.101 163.096 627.04 163.694L626.259 170.212C626.019 172.006 625.598 172.425 623.795 172.425H619.649C617.906 172.425 617.426 171.946 617.666 170.212L622.954 130.685C623.255 128.472 624.096 127.575 626.8 127.575ZM631.668 139.774C631.608 139.057 631.247 138.937 630.586 138.937C629.925 138.937 629.564 139.057 629.504 139.774L628.122 153.708C628.062 154.425 628.242 154.604 629.024 154.604H632.148C632.93 154.604 633.11 154.425 633.05 153.708L631.668 139.774Z" fill="white"/>
<path d="M655.373 143.542L663.065 150.478C667.091 154.066 667.993 156.219 667.993 160.226V161.302C667.993 168.837 665.108 173.023 656.395 173.023C647.681 173.023 644.797 169.494 644.797 159.867V158.671C644.797 156.937 645.277 156.458 647.02 156.458H651.107C652.849 156.458 653.33 156.937 653.33 158.671V161.302C653.33 163.694 654.292 164.651 656.395 164.651C658.498 164.651 659.46 163.754 659.46 161.601V160.465C659.46 158.79 659.099 157.953 656.876 155.98L649.664 149.581C645.638 146.053 644.797 144.02 644.797 140.014V138.698C644.797 131.163 647.681 126.977 656.395 126.977C665.108 126.977 667.993 130.506 667.993 140.133V141.329C667.993 143.063 667.512 143.542 665.769 143.542H661.683C659.94 143.542 659.46 143.063 659.46 141.329V138.698C659.46 136.306 658.498 135.349 656.395 135.349C654.292 135.349 653.33 136.246 653.33 138.399V139.416C653.33 141.15 653.691 141.987 655.373 143.542Z" fill="white"/>
<path d="M691.954 157.056H691.173C690.331 157.056 690.091 157.295 690.091 158.133V170.212C690.091 171.946 689.61 172.425 687.867 172.425H684.021C682.279 172.425 681.798 171.946 681.798 170.212V129.788C681.798 128.054 682.279 127.575 684.021 127.575H691.954C701.088 127.575 705.235 130.864 705.235 138.937V145.694C705.235 153.767 701.088 157.056 691.954 157.056ZM690.091 137.024V147.608C690.091 148.445 690.331 148.684 691.173 148.684H692.435C695.379 148.684 696.701 147.488 696.701 144.439V140.193C696.701 137.143 695.379 135.947 692.435 135.947H691.173C690.331 135.947 690.091 136.186 690.091 137.024Z" fill="white"/>
<path d="M714.593 127.575H722.165C724.869 127.575 725.711 128.472 726.011 130.685L731.299 170.212C731.54 171.946 731.059 172.425 729.316 172.425H725.17C723.367 172.425 722.946 172.006 722.706 170.212L721.925 163.694C721.865 163.096 721.684 162.917 720.963 162.917H715.795C715.074 162.917 714.894 163.096 714.834 163.694L714.052 170.212C713.812 172.006 713.391 172.425 711.588 172.425H707.442C705.699 172.425 705.219 171.946 705.459 170.212L710.747 130.685C711.048 128.472 711.889 127.575 714.593 127.575ZM719.461 139.774C719.401 139.057 719.04 138.937 718.379 138.937C717.718 138.937 717.357 139.057 717.297 139.774L715.915 153.708C715.855 154.425 716.035 154.604 716.817 154.604H719.941C720.723 154.604 720.903 154.425 720.843 153.708L719.461 139.774Z" fill="white"/>
<path d="M750.01 170.75L745.202 156.219C744.902 155.382 744.662 155.143 743.76 155.143H743.52C742.679 155.143 742.438 155.382 742.438 156.219V170.212C742.438 171.946 741.957 172.425 740.215 172.425H736.369C734.626 172.425 734.145 171.946 734.145 170.212V129.788C734.145 128.054 734.626 127.575 736.369 127.575H744.301C753.435 127.575 757.582 130.685 757.582 138.339V142.645C757.582 148.266 756.68 150.419 753.495 153.11C753.135 153.349 753.075 153.468 753.075 153.767C753.075 153.947 753.135 154.126 753.255 154.545L758.543 170.152C759.084 171.707 758.483 172.425 756.921 172.425H752.534C750.851 172.425 750.491 172.185 750.01 170.75ZM742.438 136.725V145.934C742.438 146.771 742.679 147.01 743.52 147.01H744.782C747.606 147.01 749.048 145.754 749.048 142.884V139.595C749.048 136.784 747.726 135.648 744.782 135.648H743.52C742.679 135.648 742.438 135.887 742.438 136.725Z" fill="white"/>
<path d="M779.044 135.947H775.318C774.477 135.947 774.237 136.186 774.237 137.024V170.212C774.237 171.946 773.756 172.425 772.013 172.425H768.167C766.424 172.425 765.944 171.946 765.944 170.212V137.024C765.944 136.186 765.703 135.947 764.862 135.947H761.136C759.393 135.947 758.913 135.469 758.913 133.735V129.788C758.913 128.054 759.393 127.575 761.136 127.575H779.044C780.787 127.575 781.268 128.054 781.268 129.788V133.735C781.268 135.469 780.787 135.947 779.044 135.947Z" fill="white"/>
<path d="M816.423 159.269C816.423 169.375 813.539 173.023 804.825 173.023C796.112 173.023 793.227 169.375 793.227 159.269V140.731C793.227 130.685 796.112 126.977 804.825 126.977C813.539 126.977 816.423 130.685 816.423 140.731V159.269ZM801.76 161.302C801.76 163.694 802.722 164.651 804.825 164.651C806.928 164.651 807.89 163.694 807.89 161.302V138.997C807.89 136.366 806.928 135.349 804.825 135.349C802.722 135.349 801.76 136.366 801.76 138.997V161.302Z" fill="white"/>
<path d="M829.586 155.322V170.212C829.586 171.946 829.105 172.425 827.362 172.425H823.516C821.773 172.425 821.293 171.946 821.293 170.212V129.788C821.293 128.054 821.773 127.575 823.516 127.575H839.681C841.424 127.575 841.905 128.054 841.905 129.788V133.735C841.905 135.469 841.424 135.947 839.681 135.947H830.667C829.826 135.947 829.586 136.186 829.586 137.024V144.798C829.586 145.575 829.826 145.874 830.667 145.874H837.157C838.9 145.874 839.381 146.352 839.381 148.086V152.033C839.381 153.767 838.9 154.246 837.278 154.246H830.667C829.826 154.246 829.586 154.485 829.586 155.322Z" fill="white"/>
<path d="M872.295 135.947H868.569C867.728 135.947 867.487 136.186 867.487 137.024V170.212C867.487 171.946 867.007 172.425 865.264 172.425H861.418C859.675 172.425 859.194 171.946 859.194 170.212V137.024C859.194 136.186 858.954 135.947 858.113 135.947H854.387C852.644 135.947 852.164 135.469 852.164 133.735V129.788C852.164 128.054 852.644 127.575 854.387 127.575H872.295C874.038 127.575 874.518 128.054 874.518 129.788V133.735C874.518 135.469 874.038 135.947 872.295 135.947Z" fill="white"/>
<path d="M891.665 170.212V154.066C891.665 153.229 891.424 152.99 890.583 152.99H885.655C884.814 152.99 884.574 153.229 884.574 154.066V170.212C884.574 171.946 884.093 172.425 882.35 172.425H878.504C876.762 172.425 876.281 171.946 876.281 170.212V129.788C876.281 128.054 876.762 127.575 878.504 127.575H882.35C884.093 127.575 884.574 128.054 884.574 129.788V143.542C884.574 144.319 884.814 144.618 885.655 144.618H890.583C891.424 144.618 891.665 144.319 891.665 143.542V129.788C891.665 128.054 892.146 127.575 893.888 127.575H897.734C899.477 127.575 899.958 128.054 899.958 129.788V170.212C899.958 171.946 899.477 172.425 897.734 172.425H893.888C892.146 172.425 891.665 171.946 891.665 170.212Z" fill="white"/>
<path d="M913.74 137.024V143.721C913.74 144.499 913.981 144.798 914.822 144.798H922.274C924.016 144.798 924.497 145.276 924.497 147.01V150.957C924.497 152.691 924.016 153.169 922.394 153.169H914.822C913.981 153.169 913.74 153.409 913.74 154.246V162.976C913.74 163.754 913.981 164.053 914.822 164.053H922.995C924.737 164.053 925.218 164.531 925.218 166.265V170.212C925.218 171.946 924.737 172.425 922.995 172.425H907.671C905.928 172.425 905.447 171.946 905.447 170.212V129.788C905.447 128.054 905.928 127.575 907.671 127.575H922.995C924.737 127.575 925.218 128.054 925.218 129.788V133.735C925.218 135.469 924.737 135.947 922.995 135.947H914.822C913.981 135.947 913.74 136.186 913.74 137.024Z" fill="white"/>
<path d="M159.648 240.246C159.648 250.352 156.763 254 148.05 254C139.336 254 136.452 250.352 136.452 240.246V221.709C136.452 211.662 139.336 207.955 148.05 207.955C156.763 207.955 159.648 211.662 159.648 221.709V240.246ZM144.985 242.279C144.985 244.671 145.946 245.628 148.05 245.628C150.153 245.628 151.115 244.671 151.115 242.279V219.974C151.115 217.343 150.153 216.327 148.05 216.327C145.946 216.327 144.985 217.343 144.985 219.974V242.279Z" fill="white"/>
<path d="M180.382 251.728L175.575 237.197C175.274 236.359 175.034 236.12 174.132 236.12H173.892C173.051 236.12 172.81 236.359 172.81 237.197V251.189C172.81 252.924 172.329 253.402 170.587 253.402H166.741C164.998 253.402 164.517 252.924 164.517 251.189V210.765C164.517 209.031 164.998 208.553 166.741 208.553H174.673C183.807 208.553 187.954 211.662 187.954 219.317V223.622C187.954 229.243 187.052 231.396 183.867 234.087C183.507 234.326 183.447 234.446 183.447 234.745C183.447 234.924 183.507 235.104 183.627 235.522L188.915 251.13C189.456 252.684 188.855 253.402 187.293 253.402H182.906C181.223 253.402 180.863 253.163 180.382 251.728ZM172.81 217.702V226.911C172.81 227.748 173.051 227.988 173.892 227.988H175.154C177.978 227.988 179.421 226.732 179.421 223.861V220.572C179.421 217.762 178.098 216.626 175.154 216.626H173.892C173.051 216.626 172.81 216.865 172.81 217.702Z" fill="white"/>
<path d="M200.568 210.765V251.189C200.568 252.924 200.088 253.402 198.345 253.402H194.499C192.756 253.402 192.275 252.924 192.275 251.189V210.765C192.275 209.031 192.756 208.553 194.499 208.553H198.345C200.088 208.553 200.568 209.031 200.568 210.765Z" fill="white"/>
<path d="M220.55 237.436C220.55 236.599 220.31 236.359 219.469 236.359H218.748C217.005 236.359 216.524 235.881 216.524 234.147V230.2C216.524 228.466 217.005 227.988 218.748 227.988H226.379C228.122 227.988 228.603 228.466 228.603 230.2V240.844C228.603 250.472 225.718 254 217.005 254C208.291 254 205.407 250.472 205.407 240.844V221.111C205.407 211.483 208.291 207.955 217.005 207.955C225.718 207.955 228.483 211.483 228.483 221.111V221.41C228.483 223.144 228.002 223.622 226.259 223.622H222.413C220.671 223.622 220.19 223.144 220.19 221.41V219.676C220.19 217.284 219.168 216.327 217.065 216.327C214.962 216.327 213.94 217.284 213.94 219.676V242.279C213.94 244.671 215.022 245.628 217.245 245.628C219.529 245.628 220.55 244.671 220.55 242.279V237.436Z" fill="white"/>
<path d="M241.531 210.765V251.189C241.531 252.924 241.05 253.402 239.307 253.402H235.461C233.718 253.402 233.238 252.924 233.238 251.189V210.765C233.238 209.031 233.718 208.553 235.461 208.553H239.307C241.05 208.553 241.531 209.031 241.531 210.765Z" fill="white"/>
<path d="M263.436 230.26V210.765C263.436 209.031 263.916 208.553 265.659 208.553H269.024C270.767 208.553 271.248 209.031 271.248 210.765V251.189C271.248 252.924 270.767 253.402 269.024 253.402H266.26C264.397 253.402 263.856 252.983 263.255 251.369L255.744 231.575C255.563 231.157 255.383 231.037 255.143 231.037C254.842 231.037 254.722 231.157 254.722 231.695V251.189C254.722 252.924 254.241 253.402 252.499 253.402H249.193C247.451 253.402 246.97 252.924 246.97 251.189V210.765C246.97 209.031 247.451 208.553 249.193 208.553H251.898C253.64 208.553 254.241 208.732 254.782 210.108L262.414 230.379C262.594 230.798 262.775 230.918 263.015 230.918C263.315 230.918 263.436 230.798 263.436 230.26Z" fill="white"/>
<path d="M283.228 208.553H290.799C293.504 208.553 294.345 209.45 294.645 211.662L299.934 251.189C300.174 252.924 299.693 253.402 297.951 253.402H293.804C292.001 253.402 291.581 252.983 291.34 251.189L290.559 244.671C290.499 244.073 290.319 243.894 289.598 243.894H284.429C283.708 243.894 283.528 244.073 283.468 244.671L282.687 251.189C282.446 252.983 282.026 253.402 280.223 253.402H276.076C274.334 253.402 273.853 252.924 274.093 251.189L279.382 211.662C279.682 209.45 280.523 208.553 283.228 208.553ZM288.095 220.752C288.035 220.034 287.675 219.915 287.014 219.915C286.352 219.915 285.992 220.034 285.932 220.752L284.55 234.685C284.49 235.403 284.67 235.582 285.451 235.582H288.576C289.357 235.582 289.537 235.403 289.477 234.685L288.095 220.752Z" fill="white"/>
<path d="M311.073 244.073C311.073 244.791 311.313 245.03 312.154 245.03H319.666C321.409 245.03 321.889 245.509 321.889 247.243V251.189C321.889 252.924 321.409 253.402 319.666 253.402H305.003C303.26 253.402 302.78 252.924 302.78 251.189V210.765C302.78 209.031 303.26 208.553 305.003 208.553H308.849C310.592 208.553 311.073 209.031 311.073 210.765V244.073Z" fill="white"/>
<path d="M336.752 253.402C335.009 253.402 334.528 252.924 334.528 251.189V210.765C334.528 209.031 335.009 208.553 336.752 208.553H345.285C353.999 208.553 357.965 211.782 357.965 219.018V222.486C357.965 225.596 356.943 227.808 354.84 229.722C354.66 229.901 354.6 229.961 354.6 230.08C354.6 230.2 354.66 230.26 354.84 230.439C357.124 232.293 358.265 234.266 358.265 237.436V243.236C358.265 250.173 354.119 253.402 344.985 253.402H336.752ZM342.821 218.001V224.878C342.821 225.715 343.062 225.954 343.903 225.954H345.165C348.109 225.954 349.432 224.938 349.432 222.307V220.572C349.432 217.941 348.109 216.925 345.165 216.925H343.903C343.062 216.925 342.821 217.164 342.821 218.001ZM345.465 245.03C348.41 245.03 349.732 244.014 349.732 241.382V237.974C349.732 235.343 348.41 234.326 345.465 234.326H343.903C343.062 234.326 342.821 234.565 342.821 235.403V243.954C342.821 244.791 343.062 245.03 343.903 245.03H345.465Z" fill="white"/>
<path d="M370.638 210.765V251.189C370.638 252.924 370.157 253.402 368.415 253.402H364.569C362.826 253.402 362.345 252.924 362.345 251.189V210.765C362.345 209.031 362.826 208.553 364.569 208.553H368.415C370.157 208.553 370.638 209.031 370.638 210.765Z" fill="white"/>
<path d="M392.631 216.925H388.906C388.064 216.925 387.824 217.164 387.824 218.001V251.189C387.824 252.924 387.343 253.402 385.6 253.402H381.754C380.012 253.402 379.531 252.924 379.531 251.189V218.001C379.531 217.164 379.291 216.925 378.449 216.925H374.723C372.981 216.925 372.5 216.446 372.5 214.712V210.765C372.5 209.031 372.981 208.553 374.723 208.553H392.631C394.374 208.553 394.855 209.031 394.855 210.765V214.712C394.855 216.446 394.374 216.925 392.631 216.925Z" fill="white"/>
<path d="M419.092 239.05V240.844C419.092 250.472 416.328 254 407.614 254C398.901 254 396.016 250.472 396.016 240.844V221.111C396.016 211.483 398.901 207.955 407.614 207.955C416.328 207.955 419.092 211.483 419.092 221.111V222.905C419.092 224.639 418.612 225.117 416.869 225.117H413.023C411.28 225.117 410.799 224.639 410.799 222.905V219.676C410.799 217.284 409.778 216.327 407.675 216.327C405.571 216.327 404.55 217.284 404.55 219.676V242.279C404.55 244.671 405.571 245.628 407.675 245.628C409.778 245.628 410.799 244.671 410.799 242.279V239.05C410.799 237.316 411.28 236.838 413.023 236.838H416.869C418.612 236.838 419.092 237.316 419.092 239.05Z" fill="white"/>
<path d="M445.621 240.246C445.621 250.352 442.736 254 434.023 254C425.309 254 422.425 250.352 422.425 240.246V221.709C422.425 211.662 425.309 207.955 434.023 207.955C442.736 207.955 445.621 211.662 445.621 221.709V240.246ZM430.958 242.279C430.958 244.671 431.919 245.628 434.023 245.628C436.126 245.628 437.088 244.671 437.088 242.279V219.974C437.088 217.343 436.126 216.327 434.023 216.327C431.919 216.327 430.958 217.343 430.958 219.974V242.279Z" fill="white"/>
<path d="M458.783 210.765V251.189C458.783 252.924 458.302 253.402 456.56 253.402H452.714C450.971 253.402 450.49 252.924 450.49 251.189V210.765C450.49 209.031 450.971 208.553 452.714 208.553H456.56C458.302 208.553 458.783 209.031 458.783 210.765Z" fill="white"/>
<path d="M480.688 230.26V210.765C480.688 209.031 481.169 208.553 482.912 208.553H486.277C488.02 208.553 488.5 209.031 488.5 210.765V251.189C488.5 252.924 488.02 253.402 486.277 253.402H483.513C481.65 253.402 481.109 252.983 480.508 251.369L472.996 231.575C472.816 231.157 472.636 231.037 472.395 231.037C472.095 231.037 471.975 231.157 471.975 231.695V251.189C471.975 252.924 471.494 253.402 469.751 253.402H466.446C464.703 253.402 464.223 252.924 464.223 251.189V210.765C464.223 209.031 464.703 208.553 466.446 208.553H469.15C470.893 208.553 471.494 208.732 472.035 210.108L479.667 230.379C479.847 230.798 480.027 230.918 480.268 230.918C480.568 230.918 480.688 230.798 480.688 230.26Z" fill="white"/>
<path d="M512.915 224.519L520.607 231.456C524.633 235.044 525.535 237.197 525.535 241.203V242.279C525.535 249.814 522.65 254 513.936 254C505.223 254 502.338 250.472 502.338 240.844V239.648C502.338 237.914 502.819 237.436 504.562 237.436H508.648C510.391 237.436 510.872 237.914 510.872 239.648V242.279C510.872 244.671 511.833 245.628 513.936 245.628C516.04 245.628 517.001 244.731 517.001 242.578V241.442C517.001 239.768 516.641 238.931 514.417 236.957L507.206 230.559C503.18 227.031 502.338 224.998 502.338 220.991V219.676C502.338 212.141 505.223 207.955 513.936 207.955C522.65 207.955 525.535 211.483 525.535 221.111V222.307C525.535 224.041 525.054 224.519 523.311 224.519H519.225C517.482 224.519 517.001 224.041 517.001 222.307V219.676C517.001 217.284 516.04 216.327 513.936 216.327C511.833 216.327 510.872 217.224 510.872 219.377V220.393C510.872 222.127 511.232 222.964 512.915 224.519Z" fill="white"/>
<path d="M551.897 239.05V240.844C551.897 250.472 549.133 254 540.419 254C531.705 254 528.821 250.472 528.821 240.844V221.111C528.821 211.483 531.705 207.955 540.419 207.955C549.133 207.955 551.897 211.483 551.897 221.111V222.905C551.897 224.639 551.416 225.117 549.673 225.117H545.827C544.085 225.117 543.604 224.639 543.604 222.905V219.676C543.604 217.284 542.582 216.327 540.479 216.327C538.376 216.327 537.354 217.284 537.354 219.676V242.279C537.354 244.671 538.376 245.628 540.479 245.628C542.582 245.628 543.604 244.671 543.604 242.279V239.05C543.604 237.316 544.085 236.838 545.827 236.838H549.673C551.416 236.838 551.897 237.316 551.897 239.05Z" fill="white"/>
<path d="M571.695 251.728L566.887 237.197C566.587 236.359 566.347 236.12 565.445 236.12H565.205C564.364 236.12 564.123 236.359 564.123 237.197V251.189C564.123 252.924 563.642 253.402 561.9 253.402H558.054C556.311 253.402 555.83 252.924 555.83 251.189V210.765C555.83 209.031 556.311 208.553 558.054 208.553H565.986C575.12 208.553 579.267 211.662 579.267 219.317V223.622C579.267 229.243 578.365 231.396 575.18 234.087C574.82 234.326 574.76 234.446 574.76 234.745C574.76 234.924 574.82 235.104 574.94 235.522L580.228 251.13C580.769 252.684 580.168 253.402 578.606 253.402H574.219C572.536 253.402 572.176 253.163 571.695 251.728ZM564.123 217.702V226.911C564.123 227.748 564.364 227.988 565.205 227.988H566.467C569.291 227.988 570.733 226.732 570.733 223.861V220.572C570.733 217.762 569.411 216.626 566.467 216.626H565.205C564.364 216.626 564.123 216.865 564.123 217.702Z" fill="white"/>
<path d="M591.881 210.765V251.189C591.881 252.924 591.401 253.402 589.658 253.402H585.812C584.069 253.402 583.588 252.924 583.588 251.189V210.765C583.588 209.031 584.069 208.553 585.812 208.553H589.658C591.401 208.553 591.881 209.031 591.881 210.765Z" fill="white"/>
<path d="M607.477 238.034H606.695C605.854 238.034 605.614 238.273 605.614 239.11V251.189C605.614 252.924 605.133 253.402 603.39 253.402H599.544C597.801 253.402 597.321 252.924 597.321 251.189V210.765C597.321 209.031 597.801 208.553 599.544 208.553H607.477C616.611 208.553 620.757 211.842 620.757 219.915V226.672C620.757 234.745 616.611 238.034 607.477 238.034ZM605.614 218.001V228.586C605.614 229.423 605.854 229.662 606.695 229.662H607.957C610.902 229.662 612.224 228.466 612.224 225.416V221.17C612.224 218.121 610.902 216.925 607.957 216.925H606.695C605.854 216.925 605.614 217.164 605.614 218.001Z" fill="white"/>
<path d="M642.22 216.925H638.494C637.652 216.925 637.412 217.164 637.412 218.001V251.189C637.412 252.924 636.931 253.402 635.189 253.402H631.343C629.6 253.402 629.119 252.924 629.119 251.189V218.001C629.119 217.164 628.879 216.925 628.037 216.925H624.312C622.569 216.925 622.088 216.446 622.088 214.712V210.765C622.088 209.031 622.569 208.553 624.312 208.553H642.22C643.962 208.553 644.443 209.031 644.443 210.765V214.712C644.443 216.446 643.962 216.925 642.22 216.925Z" fill="white"/>
<path d="M654.498 210.765V251.189C654.498 252.924 654.018 253.402 652.275 253.402H648.429C646.686 253.402 646.205 252.924 646.205 251.189V210.765C646.205 209.031 646.686 208.553 648.429 208.553H652.275C654.018 208.553 654.498 209.031 654.498 210.765Z" fill="white"/>
<path d="M676.403 230.26V210.765C676.403 209.031 676.884 208.553 678.627 208.553H681.992C683.735 208.553 684.216 209.031 684.216 210.765V251.189C684.216 252.924 683.735 253.402 681.992 253.402H679.228C677.365 253.402 676.824 252.983 676.223 251.369L668.711 231.575C668.531 231.157 668.351 231.037 668.111 231.037C667.81 231.037 667.69 231.157 667.69 231.695V251.189C667.69 252.924 667.209 253.402 665.466 253.402H662.161C660.419 253.402 659.938 252.924 659.938 251.189V210.765C659.938 209.031 660.419 208.553 662.161 208.553H664.865C666.608 208.553 667.209 208.732 667.75 210.108L675.382 230.379C675.562 230.798 675.742 230.918 675.983 230.918C676.283 230.918 676.403 230.798 676.403 230.26Z" fill="white"/>
<path d="M704.234 237.436C704.234 236.599 703.993 236.359 703.152 236.359H702.431C700.688 236.359 700.208 235.881 700.208 234.147V230.2C700.208 228.466 700.688 227.988 702.431 227.988H710.063C711.806 227.988 712.286 228.466 712.286 230.2V240.844C712.286 250.472 709.402 254 700.688 254C691.975 254 689.09 250.472 689.09 240.844V221.111C689.09 211.483 691.975 207.955 700.688 207.955C709.402 207.955 712.166 211.483 712.166 221.111V221.41C712.166 223.144 711.685 223.622 709.943 223.622H706.097C704.354 223.622 703.873 223.144 703.873 221.41V219.676C703.873 217.284 702.852 216.327 700.748 216.327C698.645 216.327 697.624 217.284 697.624 219.676V242.279C697.624 244.671 698.705 245.628 700.929 245.628C703.212 245.628 704.234 244.671 704.234 242.279V237.436Z" fill="white"/>
<path d="M735.86 224.519L743.552 231.456C747.578 235.044 748.48 237.197 748.48 241.203V242.279C748.48 249.814 745.595 254 736.882 254C728.168 254 725.283 250.472 725.283 240.844V239.648C725.283 237.914 725.764 237.436 727.507 237.436H731.593C733.336 237.436 733.817 237.914 733.817 239.648V242.279C733.817 244.671 734.778 245.628 736.882 245.628C738.985 245.628 739.946 244.731 739.946 242.578V241.442C739.946 239.768 739.586 238.931 737.362 236.957L730.151 230.559C726.125 227.031 725.283 224.998 725.283 220.991V219.676C725.283 212.141 728.168 207.955 736.882 207.955C745.595 207.955 748.48 211.483 748.48 221.111V222.307C748.48 224.041 747.999 224.519 746.256 224.519H742.17C740.427 224.519 739.946 224.041 739.946 222.307V219.676C739.946 217.284 738.985 216.327 736.882 216.327C734.778 216.327 733.817 217.224 733.817 219.377V220.393C733.817 222.127 734.177 222.964 735.86 224.519Z" fill="white"/>
<path d="M760.636 224.998C760.997 224.998 761.117 224.878 761.237 224.28L763.881 210.765C764.242 209.031 764.843 208.553 766.466 208.553H771.093C772.835 208.553 773.316 209.271 772.835 210.765L765.083 236.419C764.783 237.496 764.723 237.854 764.723 239.588V251.189C764.723 252.924 764.242 253.402 762.499 253.402H758.773C757.031 253.402 756.55 252.924 756.55 251.189V239.588C756.55 237.854 756.49 237.496 756.19 236.419L748.437 210.765C747.957 209.271 748.437 208.553 750.18 208.553H754.807C756.43 208.553 757.031 209.031 757.391 210.765L760.035 224.28C760.156 224.878 760.276 224.998 760.636 224.998Z" fill="white"/>
<path d="M783.747 224.519L791.439 231.456C795.465 235.044 796.367 237.197 796.367 241.203V242.279C796.367 249.814 793.482 254 784.769 254C776.055 254 773.171 250.472 773.171 240.844V239.648C773.171 237.914 773.651 237.436 775.394 237.436H779.481C781.223 237.436 781.704 237.914 781.704 239.648V242.279C781.704 244.671 782.665 245.628 784.769 245.628C786.872 245.628 787.834 244.731 787.834 242.578V241.442C787.834 239.768 787.473 238.931 785.249 236.957L778.038 230.559C774.012 227.031 773.171 224.998 773.171 220.991V219.676C773.171 212.141 776.055 207.955 784.769 207.955C793.482 207.955 796.367 211.483 796.367 221.111V222.307C796.367 224.041 795.886 224.519 794.143 224.519H790.057C788.314 224.519 787.834 224.041 787.834 222.307V219.676C787.834 217.284 786.872 216.327 784.769 216.327C782.665 216.327 781.704 217.224 781.704 219.377V220.393C781.704 222.127 782.064 222.964 783.747 224.519Z" fill="white"/>
<path d="M817.688 216.925H813.962C813.121 216.925 812.881 217.164 812.881 218.001V251.189C812.881 252.924 812.4 253.402 810.657 253.402H806.811C805.069 253.402 804.588 252.924 804.588 251.189V218.001C804.588 217.164 804.348 216.925 803.506 216.925H799.78C798.038 216.925 797.557 216.446 797.557 214.712V210.765C797.557 209.031 798.038 208.553 799.78 208.553H817.688C819.431 208.553 819.912 209.031 819.912 210.765V214.712C819.912 216.446 819.431 216.925 817.688 216.925Z" fill="white"/>
<path d="M829.967 218.001V224.699C829.967 225.476 830.208 225.775 831.049 225.775H838.5C840.243 225.775 840.724 226.253 840.724 227.988V231.934C840.724 233.668 840.243 234.147 838.621 234.147H831.049C830.208 234.147 829.967 234.386 829.967 235.223V243.954C829.967 244.731 830.208 245.03 831.049 245.03H839.222C840.964 245.03 841.445 245.509 841.445 247.243V251.189C841.445 252.924 840.964 253.402 839.222 253.402H823.898C822.155 253.402 821.674 252.924 821.674 251.189V210.765C821.674 209.031 822.155 208.553 823.898 208.553H839.222C840.964 208.553 841.445 209.031 841.445 210.765V214.712C841.445 216.446 840.964 216.925 839.222 216.925H831.049C830.208 216.925 829.967 217.164 829.967 218.001Z" fill="white"/>
<path d="M860.71 235.104C860.83 235.582 861.01 235.702 861.311 235.702C861.611 235.702 861.791 235.582 861.912 235.104L867.08 210.108C867.32 208.852 867.861 208.553 869.363 208.553H875.192C876.935 208.553 877.416 209.031 877.416 210.765V251.189C877.416 252.924 876.935 253.402 875.192 253.402H872.428C870.685 253.402 870.205 252.924 870.205 251.189V231.815C870.205 231.276 870.084 231.157 869.724 231.157C869.483 231.157 869.243 231.276 869.183 231.695L864.916 251.429C864.616 252.864 863.955 253.402 862.212 253.402H860.589C858.787 253.402 858.126 252.864 857.825 251.429L853.499 231.695C853.378 231.276 853.258 231.157 852.958 231.157C852.597 231.157 852.477 231.276 852.477 231.815V251.189C852.477 252.924 851.996 253.402 850.253 253.402H847.489C845.746 253.402 845.266 252.924 845.266 251.189V210.765C845.266 209.031 845.746 208.553 847.489 208.553H852.477C854.58 208.553 855.361 209.031 855.782 211.124L860.71 235.104Z" fill="white"/>
<path d="M890.101 248.2V249.754C890.101 252.206 888.899 253.402 886.435 253.402H884.873C882.469 253.402 881.207 252.206 881.207 249.754V248.2C881.207 245.808 882.469 244.552 884.873 244.552H886.435C888.899 244.552 890.101 245.808 890.101 248.2Z" fill="white"/>
</svg>
