<svg width="371" height="332" viewBox="0 0 371 332" fill="none" xmlns="http://www.w3.org/2000/svg">
<path d="M4.22957 140.514C-4.01784 162.267 1.09669 181.549 8.48848 202.372C11.7412 207.783 12.9378 214.848 16.7535 219.512C19.3166 222.644 20.3193 225.744 22.0843 229.274C24.2354 233.576 28.2422 236.794 30.8189 240.834C37.9648 252.04 45.5871 262.495 53.619 273.204C66.8389 290.831 84.6662 308.61 103.394 320.346C123.893 333.192 153.521 327.614 176.418 329.337C195.784 330.795 217.427 333.694 236.598 329.337C246.243 327.145 253.752 320.729 263.187 318.033C273.9 314.972 284.548 313.089 293.501 305.959C302.977 298.414 309.83 288.564 317.136 279.049C325.51 268.144 334.829 257.755 341.799 245.844C349.343 232.952 352.992 218.861 355.993 204.419C362.044 175.299 367.631 146.989 360.296 117.65C352.995 88.4446 338.956 61.1831 314.246 43.2125C302.766 34.863 291.113 26.8324 276.803 29.5324C226.229 39.0745 174.488 33.9927 123.946 45.4604C102.022 50.4348 85.3539 57.5364 66.9137 70.1872C56.8221 77.1105 43.9998 82.3856 35.5716 91.4458C23.1815 104.765 10.6758 123.512 4.22957 140.514Z" fill="white"/>
<path d="M11.2296 111.514C2.98216 133.267 8.09669 152.549 15.4885 173.372C18.7412 178.783 19.9378 185.848 23.7535 190.512C26.3166 193.644 27.3193 196.744 29.0843 200.274C31.2354 204.576 35.2422 207.794 37.8189 211.834C44.9648 223.04 52.5871 233.495 60.619 244.204C73.8389 261.831 91.6662 279.61 110.394 291.346C130.893 304.192 160.521 298.614 183.418 300.337C202.784 301.795 224.427 304.694 243.598 300.337C253.243 298.145 260.752 291.729 270.187 289.033C280.9 285.972 291.548 284.089 300.501 276.959C309.977 269.414 316.83 259.564 324.136 250.049C332.51 239.144 341.829 228.755 348.799 216.844C356.343 203.952 359.992 189.861 362.993 175.419C369.044 146.299 374.631 117.989 367.296 88.6498C359.995 59.4446 345.956 32.1831 321.246 14.2125C309.766 5.86303 298.113 -2.16757 283.803 0.532423C233.229 10.0745 181.488 4.99274 130.946 16.4604C109.022 21.4348 92.3539 28.5364 73.9137 41.1872C63.8221 48.1105 50.9998 53.3856 42.5716 62.4458C30.1815 75.7652 17.6758 94.5122 11.2296 111.514Z" fill="#FF3F56"/>
<path d="M115 92.3352V145.778L139.216 135.34V106.949L168.026 122.815L193.912 110.289L139.216 80.6445L115 92.3352Z" fill="white"/>
<path d="M196.417 51L155.082 72.7113L182.639 87.3247L196.417 80.2268L209.36 87.3247L238.587 72.7113L196.417 51Z" fill="white"/>
<path d="M255.706 82.3145L226.897 96.0928L245.685 107.783L115 166.655V198.804L135.041 209.242L163.433 195.046L145.897 185.026L277 124.484V93.1701L255.706 82.3145Z" fill="white"/>
<path d="M277.002 197.551V144.943L252.368 155.381V183.355L223.558 168.324L197.672 181.268L253.203 210.077L277.002 197.551Z" fill="white"/>
<path d="M181.386 205.484L155.082 218.01L196.417 239.721L239.005 218.01L212.701 205.484L196.417 211.747L181.386 205.484Z" fill="white"/>
</svg>
